<?xml version="1.0" encoding="iso-8859-1"?>
<!-- Generator: Adobe Illustrator 19.0.0, SVG Export Plug-In . SVG Version: 6.00 Build 0)  -->
<svg version="1.1" id="Capa_1" xmlns="http://www.w3.org/2000/svg" xmlns:xlink="http://www.w3.org/1999/xlink" x="0px" y="0px"
	 viewBox="0 0 511.999 511.999" style="enable-background:new 0 0 511.999 511.999;" xml:space="preserve">
<path style="fill:#2CA7C1;" d="M188.873,105.104c91.381,36.105,161.543,147.285,113.113,285.655H184.37
	c0,0,26.07-192.127-7.954-272.999C173.123,109.934,180.977,101.983,188.873,105.104z"/>
<path style="opacity:0.1;enable-background:new    ;" d="M290.659,195.436c-1.654,1.938-3.286,3.902-4.869,5.921
	c-13.704,17.474-24.443,37.895-32.074,60.707c-7.225-11.558-15.927-22.176-26.028-31.614c-10.527-9.837-22.266-18.176-34.914-24.917
	c4.715,79.774-6.579,171.151-8.21,183.75h117.921C328.429,313.946,319.233,246.743,290.659,195.436z"/>
<path style="fill:#CDEDFF;" d="M390.193,369.867H128.621c-23.65,0-42.823,19.173-42.823,42.823l0,0
	c0,23.65,19.172,42.823,42.823,42.823h261.572c23.65,0,42.823-19.172,42.823-42.823l0,0
	C433.015,389.039,413.843,369.867,390.193,369.867z"/>
<path style="opacity:0.1;enable-background:new    ;" d="M216.198,369.867h-87.577c-23.65,0-42.823,19.172-42.823,42.822l0,0
	c0,23.65,19.172,42.823,42.823,42.823h93.798C177.097,436.773,185.559,384.223,216.198,369.867z"/>
<g>
	<circle style="fill:#2CA7C1;" cx="144.593" cy="412.687" r="13.913"/>
	<circle style="fill:#2CA7C1;" cx="374.224" cy="412.687" r="13.913"/>
</g>
<path style="fill:#E9CA59;" d="M259.408,369.867v-17.403c0-103.73,48.714-198.686,187.133-205.765
	c9.537-0.488,13.899,11.618,6.288,17.384c-55.667,42.168-72.887,117.779-72.887,205.785L259.408,369.867L259.408,369.867z"/>
<path style="fill:#E36FA5;" d="M259.408,369.867v-17.403c0-111.098-105.765-172.305-204.655-138.558
	c-8.846,3.018-8.543,15.651,0.403,18.363c61.199,18.55,83.719,47.777,83.719,137.597h120.534V369.867z"/>
<path style="opacity:0.1;enable-background:new    ;" d="M48.526,225.173c0.702,3.142,2.92,5.973,6.629,7.097
	c61.198,18.55,83.719,47.777,83.719,137.597h77.844C216.951,243.308,97.602,225.503,48.526,225.173z"/>
<circle style="fill:#58B09B;" cx="461.592" cy="146.683" r="42.926"/>
<path style="opacity:0.1;enable-background:new    ;" d="M466.745,141.537c-2.843-2.843-7.453-2.844-10.298,0
	c-2.843,2.843-2.843,7.454,0,10.297l29.91,29.911c1.96-1.388,3.836-2.949,5.592-4.705c1.756-1.756,3.316-3.631,4.704-5.592
	L466.745,141.537z"/>
<circle style="fill:#58B09B;" cx="172.016" cy="99.419" r="42.926"/>
<path style="opacity:0.1;enable-background:new    ;" d="M177.159,94.267c-2.844-2.843-7.454-2.843-10.298,0l-29.91,29.91
	c1.388,1.96,2.949,3.836,4.704,5.591c1.756,1.756,3.632,3.317,5.592,4.705l29.91-29.91C180.002,101.72,180.002,97.11,177.159,94.267
	z"/>
<circle style="fill:#58B09B;" cx="50.405" cy="221.02" r="42.926"/>
<path style="opacity:0.1;enable-background:new    ;" d="M55.553,215.873l-29.911-29.91c-1.96,1.388-3.836,2.949-5.593,4.704
	c-1.756,1.756-3.317,3.631-4.705,5.592l29.91,29.91c1.422,1.421,3.286,2.132,5.148,2.132c1.863,0,3.726-0.711,5.148-2.132
	C58.395,223.326,58.395,218.716,55.553,215.873z"/>
<path style="fill:#4A4D58;" d="M259.408,433.813L259.408,433.813c-9.713,0-17.587-7.874-17.587-17.587V403.44
	c0-2.651,2.149-4.8,4.8-4.8h25.571c2.651,0,4.8,2.149,4.8,4.8v12.786C276.993,425.939,269.119,433.813,259.408,433.813z"/>
<path d="M328.636,408.255v-10.419c0-4.142-3.357-7.501-7.501-7.501c-4.143,0-7.501,3.358-7.501,7.501v10.419
	c0,4.142,3.357,7.501,7.501,7.501C325.277,415.756,328.636,412.397,328.636,408.255z M205.18,408.255v-10.419
	c0-4.142-3.358-7.501-7.501-7.501c-4.143,0-7.501,3.358-7.501,7.501v10.419c0,4.142,3.357,7.501,7.501,7.501
	C201.822,415.756,205.18,412.397,205.18,408.255z M284.494,416.227V403.44c0-6.783-5.518-12.301-12.301-12.301h-25.571
	c-6.783,0-12.301,5.518-12.301,12.301v12.786c0,13.833,11.254,25.087,25.086,25.087C273.24,441.314,284.494,430.06,284.494,416.227z
	 M249.322,416.227v-10.086h20.171v10.086c0,5.561-4.524,10.086-10.086,10.086C253.845,426.313,249.322,421.788,249.322,416.227z
	 M497.254,111.028c-19.663-19.662-51.655-19.661-71.316,0c-8.918,8.918-13.776,20.374-14.604,32.065
	c-45.926,8.075-82.626,27.404-109.444,57.592c-18.279-36.662-46.65-67.517-81.173-88.175c1.127-4.22,1.721-8.611,1.721-13.096
	c0-13.469-5.245-26.132-14.77-35.657c-9.524-9.524-22.188-14.77-35.657-14.77c-13.469,0-26.132,5.245-35.657,14.77
	c-19.661,19.662-19.661,51.654,0,71.314c9.525,9.524,22.188,14.77,35.657,14.77c2.082,0,4.142-0.14,6.178-0.387
	c3.919,18.162,6.461,40.241,7.574,65.895c-27.099-14.061-58.547-20.283-90.6-17.558c-2.319-4.476-5.349-8.678-9.1-12.428
	c-19.661-19.662-51.654-19.661-71.315,0c-19.661,19.662-19.661,51.653,0,71.314c9.831,9.831,22.744,14.746,35.657,14.746
	c12.914,0,25.827-4.915,35.658-14.746c0.784-0.784,1.526-1.595,2.247-2.416c30.414,18.293,42.133,47.921,43.004,108.105h-2.691
	c-27.748,0-50.324,22.575-50.324,50.324c0,27.749,22.575,50.323,50.324,50.323h17.138c4.142,0,7.501-3.358,7.501-7.501
	c0-4.142-3.358-7.501-7.501-7.501h-17.137c-19.478,0-35.322-15.845-35.322-35.321c0-19.477,15.845-35.322,35.322-35.322h261.572
	c19.477,0,35.321,15.845,35.321,35.322c0,19.477-15.845,35.321-35.321,35.321H186.741c-4.143,0-7.501,3.358-7.501,7.501
	c0,4.142,3.357,7.501,7.501,7.501h203.452c27.748,0,50.323-22.575,50.323-50.323c0-27.748-22.574-50.324-50.323-50.324h-2.698
	c0.535-46.346,6.061-84.16,16.866-115.371c1.355-3.914-0.719-8.187-4.633-9.542c-3.914-1.355-8.188,0.72-9.542,4.634
	c-11.355,32.796-17.157,72.209-17.699,120.279H266.907v-9.902c0-50.351,11.894-94.191,34.397-126.782
	c24.805-35.927,62.2-58.623,111.204-67.556c1.895,8.19,5.85,15.993,11.871,22.575c-7.07,8.249-13.462,17.399-19.036,27.316
	c-2.028,3.611-0.746,8.185,2.865,10.213c1.162,0.653,2.423,0.963,3.667,0.963c2.623,0,5.169-1.378,6.547-3.828
	c5.16-9.185,11.075-17.631,17.608-25.21c7.86,4.62,16.711,6.933,25.565,6.933c12.914,0,25.827-4.915,35.658-14.746
	C516.915,162.681,516.915,130.689,497.254,111.028z M75.455,246.07c-13.814,13.811-36.287,13.812-50.102,0h0.001
	c-13.813-13.812-13.813-36.287-0.001-50.1c13.813-13.812,36.287-13.813,50.101,0C89.266,209.784,89.266,232.258,75.455,246.07z
	 M182.1,133.385c-0.021,0.005-0.041,0.007-0.062,0.012c-0.059,0.015-0.115,0.037-0.174,0.053c-3.163,0.911-6.471,1.39-9.854,1.39
	c-9.462,0-18.359-3.685-25.049-10.376c-13.812-13.813-13.812-36.287-0.001-50.1c6.692-6.692,15.588-10.376,25.05-10.376
	c9.463,0,18.359,3.684,25.05,10.376c6.691,6.691,10.376,15.587,10.376,25.049c0,4.664-0.899,9.19-2.608,13.382
	c-0.063,0.138-0.12,0.277-0.174,0.417c-1.755,4.151-4.31,7.968-7.594,11.251c-0.001,0-0.001,0-0.001,0
	C192.821,128.705,187.693,131.732,182.1,133.385z M251.906,362.366H146.317c-0.964-65.571-14.937-99.617-49.895-120.749
	c4.102-9.195,5.316-19.37,3.646-29.15c39.936-2.479,78.473,10.22,106.854,35.478c29.009,25.815,44.984,62.935,44.984,104.518
	L251.906,362.366L251.906,362.366z M288.959,217.159c-15.246,22.082-25.968,48.787-31.829,78.852
	c-8.377-22.812-21.984-43.028-40.235-59.27c-4.996-4.446-10.28-8.532-15.8-12.264c-0.898-31.069-3.729-57.6-8.432-79.044
	c5.517-2.479,10.599-5.956,15.004-10.36c2.672-2.672,4.994-5.6,6.972-8.714c33.275,20.365,60.272,51.008,76.82,87.281
	C290.614,214.8,289.779,215.971,288.959,217.159z M486.647,171.735c-12.891,12.888-33.321,13.746-47.217,2.579l-0.036-0.028
	c-0.982-0.792-1.934-1.639-2.846-2.552c-13.813-13.812-13.813-36.287-0.001-50.099c6.907-6.906,15.979-10.359,25.051-10.359
	c9.071,0,18.144,3.453,25.049,10.359C500.458,135.448,500.458,157.922,486.647,171.735z"/>
<g>
</g>
<g>
</g>
<g>
</g>
<g>
</g>
<g>
</g>
<g>
</g>
<g>
</g>
<g>
</g>
<g>
</g>
<g>
</g>
<g>
</g>
<g>
</g>
<g>
</g>
<g>
</g>
<g>
</g>
</svg>
